<svg version="1.0" xmlns="http://www.w3.org/2000/svg"
 width="64.000000pt" height="64.000000pt" viewBox="0 0 64.000000 64.000000"
 preserveAspectRatio="xMidYMid meet">

<g transform="translate(0.000000,64.000000) scale(0.100000,-0.100000)"
fill="white" stroke="none">
<path d="M172 629 c-10 -11 -5 -20 25 -51 l37 -38 -22 -22 -22 -22 -35 34
c-23 23 -32 37 -25 44 17 17 11 25 -27 35 -66 19 -83 15 -83 -18 0 -32 19 -91
29 -91 4 0 12 5 17 10 7 7 21 -2 44 -25 l34 -35 -22 -22 -22 -22 -38 37 c-34
33 -40 36 -52 22 -8 -9 -10 -29 -7 -51 7 -44 12 -50 30 -35 11 9 17 8 27 -4
31 -38 50 -39 85 -5 37 36 59 36 60 -1 0 -19 5 -24 27 -24 15 0 33 -6 40 -13
10 -10 -15 -40 -130 -155 -78 -78 -142 -148 -142 -155 0 -7 7 -15 16 -19 11
-4 58 36 160 138 l144 144 144 -144 c102 -102 149 -142 160 -138 9 4 16 12 16
19 0 7 -64 77 -142 155 -115 115 -140 145 -130 155 7 7 25 13 40 13 22 0 27 5
27 24 1 37 23 37 60 1 35 -34 54 -33 85 5 10 12 16 13 27 4 18 -15 23 -9 30
35 3 22 1 42 -7 51 -12 14 -18 11 -52 -22 l-38 -37 -22 22 -22 22 34 35 c23
23 37 32 44 25 17 -17 25 -11 35 28 19 65 15 82 -18 82 -32 0 -91 -19 -91 -29
0 -4 5 -12 10 -17 7 -7 -2 -21 -25 -44 l-35 -34 -22 22 -22 22 37 38 c33 34
36 40 22 52 -9 8 -29 10 -51 7 -44 -7 -50 -12 -35 -30 9 -11 8 -17 -4 -27 -38
-31 -39 -50 -5 -85 36 -37 36 -59 -1 -60 -19 0 -24 -5 -24 -27 0 -36 -20 -57
-37 -39 -7 6 -13 24 -13 39 0 22 -5 27 -24 27 -37 1 -37 23 -1 60 34 35 33 54
-5 85 -12 10 -13 16 -4 27 16 18 8 24 -38 30 -24 3 -43 0 -51 -8z m64 -26 c-4
-10 3 -26 21 -45 l27 -28 -39 -40 c-37 -37 -38 -40 -22 -58 22 -24 9 -37 -15
-15 -18 16 -21 15 -58 -22 l-40 -39 -28 27 c-19 18 -35 25 -45 21 -13 -5 -17
0 -17 20 0 34 7 33 47 -6 l33 -32 35 34 35 34 -47 48 c-33 34 -50 45 -59 37
-13 -11 -24 8 -24 42 0 19 23 25 54 13 12 -4 13 -10 7 -18 -8 -9 3 -26 37 -59
l48 -47 34 35 34 35 -32 33 c-39 40 -40 47 -6 47 20 0 25 -4 20 -17z m214 10
c0 -4 -14 -22 -32 -40 l-32 -33 34 -35 34 -35 48 47 c34 33 45 50 37 59 -6 8
-5 14 7 18 31 12 54 6 54 -13 0 -34 -11 -53 -24 -42 -9 8 -26 -3 -59 -37 l-47
-48 35 -34 35 -34 33 32 c40 39 47 40 47 6 0 -20 -4 -25 -17 -20 -10 4 -26 -3
-45 -21 l-28 -27 -40 39 c-37 37 -40 38 -58 22 -24 -22 -37 -9 -15 15 16 18
15 21 -22 58 l-39 40 27 28 c18 19 25 35 21 45 -5 13 0 17 20 17 14 0 26 -3
26 -7z m-170 -201 c0 -14 -49 -56 -57 -49 -3 4 4 18 17 32 24 25 40 32 40 17z
m120 -17 c13 -14 20 -28 17 -32 -8 -7 -57 35 -57 49 0 15 16 8 40 -17z m55
-195 c93 -93 166 -173 162 -177 -8 -7 -347 325 -347 339 0 20 27 -3 185 -162z
m-85 161 c0 -12 -20 -25 -27 -18 -7 7 6 27 18 27 5 0 9 -4 9 -9z m-70 -69 c0
-14 -269 -276 -277 -269 -7 8 255 277 269 277 5 0 8 -3 8 -8z"/>
<path d="M140 318 c0 -24 11 -48 22 -48 5 0 6 10 3 23 -10 30 -25 46 -25 25z"/>
<path d="M479 304 c-11 -30 -3 -46 11 -24 10 16 13 50 5 50 -3 0 -10 -12 -16
-26z"/>
<path d="M90 289 c0 -14 38 -44 46 -36 2 2 -7 14 -21 27 -17 16 -25 19 -25 9z"/>
<path d="M521 276 c-26 -28 -18 -35 13 -11 10 7 16 19 14 25 -2 6 -14 0 -27
-14z"/>
<path d="M62 238 c2 -6 14 -15 27 -20 16 -5 21 -4 19 4 -2 6 -14 15 -27 20
-16 5 -21 4 -19 -4z"/>
<path d="M293 220 c-38 -47 -25 -90 27 -90 53 0 66 46 25 93 -13 15 -25 27
-27 26 -2 0 -13 -13 -25 -29z m45 -22 c28 -28 3 -66 -33 -52 -18 7 -20 35 -3
52 15 15 21 15 36 0z"/>
<path d="M553 239 c-28 -10 -30 -29 -3 -22 20 5 36 21 29 27 -2 2 -14 0 -26
-5z"/>
<path d="M230 112 c0 -22 96 -40 134 -26 30 12 16 19 -36 19 -29 0 -63 4 -75
8 -14 5 -23 4 -23 -1z"/>
<path d="M178 63 c7 -3 16 -2 19 1 4 3 -2 6 -13 5 -11 0 -14 -3 -6 -6z"/>
<path d="M410 59 c-31 -13 -113 -16 -165 -6 -37 7 -39 6 -21 -8 29 -23 159
-20 211 4 43 21 22 28 -25 10z"/>
</g>
</svg>
