<?xml version="1.0" encoding="utf-8"?>
<!-- Generator: Adobe Illustrator 23.0.0, SVG Export Plug-In . SVG Version: 6.00 Build 0)  -->
<svg version="1.1" id="Layer_1" xmlns="http://www.w3.org/2000/svg" xmlns:xlink="http://www.w3.org/1999/xlink" x="0px" y="0px"
	 viewBox="0 0 52.79 52.77" style="enable-background:new 0 0 52.79 52.77;" xml:space="preserve">
<style type="text/css" fill="white">
</style>
<g fill="white">
	<g>
		<path class="st0" d="M26.53,0.5c14.29,0.03,25.82,11.67,25.76,26.02c-0.06,14.25-11.8,25.85-26.07,25.75
			C11.85,52.16,0.43,40.59,0.5,26.21C0.57,11.84,12.07,0.47,26.53,0.5z M2.8,26.13c-0.04,13.2,10.53,23.81,23.68,23.79
			c12.82-0.03,23.43-10.64,23.46-23.46C49.98,13.47,39.36,2.82,26.39,2.82C13.51,2.83,2.85,13.36,2.8,26.13z"/>
	</g>
</g>
<g fill="white">
	<path class="st1" d="M34.28,36.72c-2.54,0.64-4.71-1.05-4.55-3.48c0.07-1.12-0.3-1.81-1.07-2.49c-0.76-0.69-1.43-1.49-2.25-2.36
		c-1.12,1.16-2.17,2.17-3.11,3.28c-0.24,0.29-0.19,0.87-0.17,1.32c0.11,2.6-2.02,4.43-4.61,3.71c0.51-0.52,0.95-0.97,1.39-1.42
		c0.87-0.88,0.95-1.82,0.23-2.56c-0.73-0.74-1.7-0.7-2.56,0.17c-0.43,0.44-0.78,0.97-1.22,1.54c-0.96-1.71,0.07-3.9,1.89-4.51
		c0.6-0.2,1.3-0.09,1.93-0.21c0.45-0.08,0.97-0.2,1.3-0.49c0.91-0.81,1.73-1.71,2.59-2.59c0.06-0.06,0.1-0.15,0.24-0.4
		c-1-0.94-1.98-1.95-3.06-2.84c-0.32-0.26-0.92-0.28-1.38-0.26c-2.39,0.1-4.16-1.65-3.94-3.94c0.01-0.15,0.07-0.3,0.17-0.71
		c0.56,0.56,1,1,1.43,1.45c0.54,0.55,1.15,0.87,1.94,0.6c1.19-0.41,1.55-1.77,0.66-2.73c-0.49-0.52-1.11-0.92-1.73-1.42
		c1.15-0.68,2.49-0.46,3.44,0.34c1.04,0.88,1.45,2.02,1.26,3.35c-0.09,0.63,0.09,1.05,0.54,1.48c0.92,0.89,1.77,1.85,2.83,2.97
		c1.1-1.19,2.11-2.21,3.02-3.32c0.24-0.3,0.24-0.87,0.22-1.3c-0.11-2.45,1.69-4.26,3.99-3.97c0.14,0.02,0.28,0.08,0.6,0.16
		c-0.48,0.51-0.88,0.93-1.28,1.34c-0.98,1-1.08,1.91-0.3,2.69c0.77,0.77,1.76,0.66,2.68-0.35c0.38-0.41,0.7-0.86,1.12-1.38
		c0.96,2.05-0.56,4.76-2.61,4.6c-2.3-0.19-3.23,1.34-4.54,2.53c-0.28,0.25-0.59,0.47-1.05,0.82c1.21,1.16,2.23,2.21,3.34,3.15
		c0.29,0.24,0.87,0.2,1.32,0.18c2.13-0.08,3.74,1.24,3.92,3.31c0.03,0.36-0.06,0.73-0.11,1.36c-0.58-0.56-1-0.95-1.41-1.36
		c-0.98-0.96-1.96-1.06-2.7-0.28c-0.72,0.76-0.61,1.71,0.32,2.64C33.38,35.77,33.78,36.2,34.28,36.72z"/>
</g>
</svg>
