<?xml version="1.0" encoding="utf-8"?>
<!-- Generator: Adobe Illustrator 23.0.1, SVG Export Plug-In . SVG Version: 6.00 Build 0)  -->
<svg version="1.1" id="Calque_1" xmlns="http://www.w3.org/2000/svg" xmlns:xlink="http://www.w3.org/1999/xlink" x="0px" y="0px"
	 viewBox="0 0 612 217.64" style="enable-background:new 0 0 612 217.64;" xml:space="preserve">
<style type="text/css">
	.st0{fill:#7D8385;}
</style>
<g>
	<path class="st0" d="M52.75,37.99h6.45c17.85,0,20.53,11.59,20.53,18.51c0,14.62-6.4,21.44-20.1,21.44h-6.88 M70.93,30.88H34.98
		h-1.3v93.01h19.06V86.53h10.83c24.66,0,35.19-8.23,35.19-27.53C98.77,40.53,84.76,30.88,70.93,30.88"/>
	<path class="st0" d="M151.36,117.78c-22.16,0-24.57-28.26-24.57-40.39c0-12.15,2.41-40.41,24.57-40.41
		c22.3,0,24.71,28.26,24.71,40.41C176.07,89.52,173.67,117.78,151.36,117.78 M151.36,28.4c-25.56,0-44.83,21.06-44.83,48.99
		s19.27,48.97,44.83,48.97c25.64,0,44.97-21.04,44.97-48.97S177,28.4,151.36,28.4"/>
	<path class="st0" d="M271.36,58.84c0-16.48-10.78-27.96-26.16-27.96h-37.87h-1.3v93.02h19.06v-85.9h7.64
		c17.03,0,19.56,11.84,19.56,18.9c0,14.92-12.39,18.05-22.82,18.05h-3.21l25.35,48.95h21.09c0,0-21.95-39.88-23.5-42.71
		C263.55,78.78,271.36,71.19,271.36,58.84"/>
	<path class="st0" d="M353.88,97.58c-4.96,11.69-15.68,18.97-27.98,18.97c-19.9,0-28.97-20.09-28.97-38.75
		c0-26.32,11.02-40.83,31-40.83c11.43,0,18.55,8.21,24.35,15.91l0.76,1.01l6.93-5.13l-0.75-1.08c-8.24-12.08-21.3-19.28-34.96-19.28
		c-27.14,0-47.62,21.52-47.62,50.09c0,26.4,20.64,47.87,45.98,47.87c18.41,0,31.68-8.31,39.43-24.73l0.55-1.21l-8.19-4.1"/>
	<path class="st0" d="M554.83,81.18c14.38-2.4,22.17-9.99,22.17-22.34c0-16.48-10.76-27.96-26.18-27.96h-37.87h-1.28v93.02h19.06
		V37.99h7.64c17.02,0,19.57,11.84,19.57,18.9c0,14.92-12.42,18.05-22.82,18.05h-3.24l25.34,48.95h21.09
		C578.32,123.89,556.39,84.01,554.83,81.18"/>
	<polyline class="st0" points="35.34,163.49 35.34,188.79 47.49,188.79 47.49,186.31 38.11,186.31 38.11,163.49 	"/>
	<path class="st0" d="M66.07,166.68L71,179.36h-9.82 M64.83,163.49l-10.28,25.3h2.97l2.83-7.11h11.48l2.86,7.11h3l-10.18-25.3H64.83
		z"/>
	<path class="st0" d="M126.37,181.99c-1.6,3.9-5.9,7.25-11.32,7.25c-7.28,0-12.84-5.76-12.84-13.08c0-7.21,5.42-13.11,12.82-13.11
		c6.07,0,9.91,4.18,11.34,7.39h-2.96c-0.83-1.49-3.63-4.88-8.38-4.88c-5.76,0-10.09,4.68-10.09,10.56c0,5.99,4.35,10.63,10.09,10.63
		c5.15,0,7.78-3.8,8.38-4.75"/>
	<path class="st0" d="M138.25,176.16c0,5.95,4.37,10.59,10.11,10.59c5.83,0,10.1-4.83,10.1-10.59c0-5.79-4.26-10.6-10.12-10.6
		c-5.78,0-10.09,4.71-10.09,10.56 M135.5,176.22c0-7.8,5.89-13.17,12.84-13.17c7.22,0,12.84,5.68,12.84,13.11
		c0,7.41-5.59,13.08-12.84,13.08c-7.28,0-12.84-5.76-12.84-12.99V176.22z"/>
	<polyline class="st0" points="188.86,163.49 188.89,184.63 174.45,163.49 171.66,163.49 171.66,188.79 174.31,188.79 174.25,167.5 
		188.86,188.79 191.53,188.79 191.53,163.49 	"/>
	<polyline class="st0" points="203.12,163.49 203.12,188.79 205.85,188.79 205.85,177.41 215.56,177.41 215.56,174.88 
		205.85,174.88 205.85,165.99 215.63,165.99 215.63,163.49 	"/>
	<path class="st0" d="M249.66,166.68l4.92,12.68h-9.82 M248.43,163.49l-10.29,25.3h2.96l2.83-7.11h11.48l2.86,7.11h2.99l-10.17-25.3
		H248.43z"/>
	<polyline class="st0" points="287.89,163.49 287.91,184.63 273.47,163.49 270.67,163.49 270.67,188.79 273.34,188.79 273.27,167.5 
		287.89,188.79 290.54,188.79 290.54,163.49 	"/>
	<path class="st0" d="M325.16,181.99c-1.59,3.9-5.89,7.25-11.31,7.25c-7.28,0-12.84-5.76-12.84-13.08c0-7.21,5.43-13.11,12.81-13.11
		c6.08,0,9.91,4.18,11.34,7.39h-2.96c-0.83-1.49-3.63-4.88-8.38-4.88c-5.76,0-10.08,4.68-10.08,10.56c0,5.99,4.36,10.63,10.08,10.63
		c5.15,0,7.79-3.8,8.38-4.75"/>
	<polyline class="st0" points="335.47,163.49 335.47,188.79 349.11,188.79 349.11,186.31 338.2,186.31 338.2,177.28 349.04,177.28 
		349.04,174.78 338.2,174.78 338.2,165.99 349.11,165.99 349.11,163.49 	"/>
	<rect x="376.39" y="163.49" class="st0" width="2.72" height="25.3"/>
	<rect x="225.26" y="163.49" class="st0" width="2.73" height="25.3"/>
	<polyline class="st0" points="407.94,163.49 407.97,184.63 393.53,163.49 390.74,163.49 390.74,188.79 393.4,188.79 393.33,167.5 
		407.94,188.79 410.6,188.79 410.6,163.49 	"/>
	<path class="st0" d="M423.77,181.75c0.39,4.2,3.4,5.11,4.93,5.11c2.56,0,4.92-2.02,4.92-4.83c0-3.56-2.96-4.34-5.83-5.3
		c-2-0.62-6.28-1.91-6.28-6.7c-0.08-4.47,3.55-6.98,7.31-6.98c3.06,0,6.59,1.75,6.99,6.53h-2.74c-0.3-1.63-1.09-4.14-4.36-4.14
		c-2.46,0-4.49,1.72-4.49,4.36c-0.03,3.07,2.39,3.81,6.13,5.11c2.32,0.92,5.99,2.27,5.99,6.92c0,4.12-3.03,7.4-7.62,7.4
		c-4.12,0-7.54-2.66-7.72-7.49"/>
	<polyline class="st0" points="444.48,163.49 444.48,165.99 450.53,165.99 450.53,188.79 453.3,188.79 453.3,165.99 459.38,165.99 
		459.38,163.49 	"/>
	<path class="st0" d="M475.5,166.68l4.92,12.68h-9.82 M474.26,163.49l-10.29,25.3h2.98l2.82-7.11h11.48l2.87,7.11h3l-10.18-25.3
		H474.26z"/>
	<polyline class="st0" points="496.55,163.49 496.55,188.79 508.68,188.79 508.68,186.31 499.31,186.31 499.31,163.49 	"/>
	<polyline class="st0" points="517.99,163.49 517.99,188.79 530.13,188.79 530.13,186.31 520.75,186.31 520.75,163.49 	"/>
	<path class="st0" d="M539.4,163.49v25.3h13.64v-2.49h-10.92v-9.03h10.86v-2.5h-10.86v-8.79h10.92v-2.49 M541.94,160.32l0.8,1.63
		l8.01-4.41l-0.9-1.84L541.94,160.32z"/>
	<polyline class="st0" points="564.07,163.49 564.07,188.79 577.71,188.79 577.71,186.31 566.8,186.31 566.8,177.28 577.65,177.28 
		577.65,174.78 566.8,174.78 566.8,165.99 577.71,165.99 577.71,163.49 	"/>
	<path class="st0" d="M466.02,115.29V80.07h33.39v-8.61h-33.39v-32h35.41v-8.59h-1.27h-53.19v19.29l7.09,12.21
		c0,0,0.26,0.41,0.64,1.13c1.61,2.19,2.36,5.46,2.36,8.42c0,6.35-4.27,11.2-10.08,12.24v39.71h55.01v-8.59"/>
	<path class="st0" d="M431.96,72.6c-0.05-0.52-0.07-1.13-0.03-1.8c0-0.05,0.01-0.11,0.01-0.16c0.01-0.1,0.02-0.23,0.03-0.36
		c0.03-0.13,0.03-0.25,0.04-0.39c0,0,0.01-0.02,0.01-0.03c0.04-0.43,0.11-0.87,0.22-1.29c0.43-2.06,1.37-4.56,3.25-7.42l6.23-10.9
		v-19.4h-1.29h-17.77v39.87h-33.51V30.85h-19.06v93.04h19.06V80.56h33.51v43.33h19.06V84.1C436.46,82.85,432.46,78.25,431.96,72.6"
		/>
</g>
</svg>
