<?xml version="1.0" encoding="UTF-8"?>
<svg viewBox="0 0 116 15" version="1.1" xmlns="http://www.w3.org/2000/svg" xmlns:xlink="http://www.w3.org/1999/xlink">
    <title>object/logo/thermor_1</title>
    <defs>
        <path d="M105.636356,4.16645937 C107.511928,4.1702584 107.538707,4.22534429 107.979444,5.02408972 L107.979444,5.02408972 L111.137585,5.02408972 C112.389478,5.02408972 112.389478,5.02605605 111.757572,6.57513439 L111.757572,6.57513439 L109.050963,6.57513439 C107.620681,6.57946033 106.199935,7.22559785 106.187023,8.51846281 C106.169343,10.1766727 108.528115,10.7728653 110.239288,10.307434 L110.239288,10.307434 L110.018191,10.8499457 C109.893637,11.1570871 109.634994,11.3843954 109.325497,11.437683 C107.933754,11.6824917 106.404545,11.3944237 105.496117,10.5072135 C105.53406,12.0600279 106.72318,13.806133 109.137376,14.8056208 C106.459968,14.8056208 102.361417,13.806133 102.361417,10.0284111 C101.309564,11.6891772 101.819102,13.535762 102.653234,14.7523332 C99.8840504,13.778211 98.5266735,11.0780405 99.7674427,8.59357679 C97.8399398,9.84613188 97.4778004,11.9721328 97.8029908,13.551296 L97.8029908,13.551296 L97.6514584,13.2397673 C96.5783713,11.003878 95.8356342,8.68138892 98.8482882,5.21718377 L98.8482882,5.21718377 L96.7137917,4.16617796 Z M76.8360575,4.15949243 C80.829324,4.15949243 82.8239707,5.93784537 82.8239707,9.49278156 C82.8239707,13.03415 80.829324,14.8038511 76.8360575,14.8038511 C72.8259058,14.8038511 70.8221212,13.03415 70.8221212,9.49278156 C70.8221212,5.93784537 72.8259058,4.15949243 76.8360575,4.15949243 Z M15.2608504,0.000105 L15.2608504,4.8376812 C16.2086106,4.385031 17.3637615,4.15949243 18.7286871,4.15949243 C22.7219535,4.15949243 24.7167989,5.92073826 24.7167989,9.44519627 L24.7167989,9.44519627 L24.7167989,14.7065176 L22.1722884,14.7065176 L22.1722884,9.43438143 C22.1722884,8.35997624 21.9549651,7.58347074 21.5215103,7.10486491 C20.9921075,6.50827902 20.0602394,6.21096924 18.7286871,6.21096924 C17.3959428,6.21096924 16.4567247,6.50827902 15.9116285,7.10486491 C15.4789684,7.58347074 15.2608504,8.35997624 15.2608504,9.43438143 L15.2608504,9.43438143 L15.2608504,14.7065176 L12.7147507,14.7065176 L12.7147507,2.05118855 L7.40582398,2.05118855 L7.40582398,14.7065176 L4.88395962,14.7065176 L4.88395962,2.05118855 L-0.000253,2.05118855 L-0.000253,0.000105 L15.2608504,0.000105 Z M32.3070246,4.15949243 C36.2816179,4.15949243 38.2134912,5.88593414 38.2134912,9.4365444 L38.2134912,9.4365444 L38.2134912,10.4014247 L28.7905187,10.4014247 L28.8076026,10.4997415 C29.0722047,12.0212911 30.2502004,12.7930774 32.3070246,12.7930774 L32.3070246,12.7930774 L37.366844,12.7930774 L37.366844,14.7065176 L32.3070246,14.7065176 C28.3151487,14.7065176 26.37672,12.9855816 26.37672,9.44519627 C26.37672,5.88790048 28.3151487,4.15949243 32.3070246,4.15949243 Z M47.0573984,4.15949243 L47.0573984,6.21096924 L46.5854055,6.21096924 C45.0178567,6.21096924 43.9338225,6.38872588 43.3360841,6.74718866 C42.9010401,7.01284046 42.681333,7.42459091 42.681333,7.98244001 L42.681333,7.98244001 L42.681333,14.7065176 L40.158674,14.7065176 L40.158674,7.99522119 C40.158674,5.4383964 42.3027057,4.15949243 46.5854055,4.15949243 L46.5854055,4.15949243 L47.0573984,4.15949243 Z M63.1355501,4.15949243 C67.1441126,4.15949243 69.1496851,5.92073826 69.1496851,9.44519627 L69.1496851,9.44519627 L69.1496851,14.7065176 L66.6268275,14.7065176 L66.6268275,9.43438143 C66.6268275,8.35997624 66.4102988,7.58347074 65.9730696,7.10486491 C65.4243978,6.50827902 64.476439,6.21096924 63.1355501,6.21096924 C61.7926747,6.21096924 60.8562376,6.50827902 60.3224645,7.10486491 C59.8880165,7.58347074 59.6693027,8.35997624 59.6693027,9.43438143 L59.6693027,9.43438143 L59.6693027,14.7065176 L57.1454518,14.7065176 L57.1454518,9.43438143 C57.1454518,8.35997624 56.9287244,7.58347074 56.4907007,7.10486491 C55.9428234,6.50827902 54.9970498,6.21096924 53.6547704,6.21096924 C52.3134842,6.21096924 51.3750606,6.50827902 50.8424794,7.10486491 C50.4046543,7.58347074 50.1865364,8.35997624 50.1865364,9.43438143 L50.1865364,9.43438143 L50.1865364,14.7065176 L47.6662613,14.7065176 L47.6662613,9.44519627 C47.6662613,5.92073826 49.6617026,4.15949243 53.6547704,4.15949243 C55.7886709,4.15949243 57.3721117,4.69177918 58.4070792,5.75104359 C59.4255589,4.69177918 61.0026428,4.15949243 63.1355501,4.15949243 Z M91.6599318,4.15949243 L91.6599318,6.21096924 L91.1887336,6.21096924 C89.6217807,6.21096924 88.5389385,6.38872588 87.9398094,6.74640213 C87.5035736,7.01284046 87.2860516,7.42439428 87.2860516,7.98244001 L87.2860516,7.98244001 L87.2860516,14.7065176 L84.7635913,14.7065176 L84.7635913,7.99522119 C84.7635913,5.4383964 86.9052392,4.15949243 91.1887336,4.15949243 L91.1887336,4.15949243 L91.6599318,4.15949243 Z M76.8360575,6.22964942 C75.4935794,6.22964942 74.5551559,6.5299087 74.0227733,7.13553973 C73.5857428,7.61965129 73.3694128,8.4050053 73.3694128,9.49278156 C73.3694128,10.5801646 73.5857428,11.3672883 74.0227733,11.8498268 C74.5551559,12.4397271 75.4935794,12.7356605 76.8360575,12.7356605 C78.1765491,12.7356605 79.1151713,12.4397271 79.6471566,11.8498268 C80.084187,11.3672883 80.3011131,10.5801646 80.3011131,9.49278156 C80.3011131,8.4050053 80.084187,7.61965129 79.6471566,7.13553973 C79.1151713,6.5299087 78.1765491,6.22964942 76.8360575,6.22964942 Z M107.350517,8.92392099 C107.350517,8.92392099 108.715641,7.53824504 111.009852,8.14761211 C113.270293,8.74793405 113.985037,9.08299745 115.999747,8.02687917 C113.691829,10.0476812 111.926822,9.56730564 110.239288,8.97779855 C108.362044,8.32084619 107.350517,8.92392099 107.350517,8.92392099 Z M32.3070246,6.07529216 C30.2502004,6.07529216 29.0722047,6.85337073 28.8076026,8.38947126 L28.8076026,8.38947126 L28.7905187,8.48778799 L35.8008844,8.48778799 L35.7834032,8.38907799 C35.5182052,6.85337073 34.3481555,6.07529216 32.3070246,6.07529216 Z M107.067242,5.23468415 L103.433334,5.23468415 L105.970891,6.08807333 C106.513405,6.27094244 107.067242,5.84169161 107.067242,5.23468415 L107.067242,5.23468415 Z" id="path-1"></path>
    </defs>
    <g id="object/logo/thermor_1" stroke="none" stroke-width="1" fill="none" fill-rule="evenodd">
        <g id="color/brand/rouge_thermor">
            <mask id="mask-2" fill="white">
                <use xlink:href="#path-1"></use>
            </mask>
            <use id="Mask" fill="#E62814" xlink:href="#path-1"></use>
            <g mask="url(#mask-2)" fill="#E62814" id="fill">
                <polygon points="-7.3246964e-14 1.45716772e-15 116 1.45716772e-15 116 15 -7.3246964e-14 15"></polygon>
            </g>
        </g>
    </g>
</svg>