<svg fill="black" height="800px" width="800px" version="1.1" id="Layer_1" xmlns="http://www.w3.org/2000/svg" xmlns:xlink="http://www.w3.org/1999/xlink" viewBox="0 0 512 512" xml:space="preserve" stroke="#000000" stroke-width="0.00512">

<g id="SVGRepo_bgCarrier" stroke-width="0"/>

<g id="SVGRepo_tracerCarrier" stroke-linecap="round" stroke-linejoin="round"/>

<g id="SVGRepo_iconCarrier"> <g> <g> <g> <path d="M426.667,0H85.333C73.551,0,64,9.551,64,21.333v469.333C64,502.449,73.551,512,85.333,512h341.333 c11.782,0,21.333-9.551,21.333-21.333V21.333C448,9.551,438.449,0,426.667,0z M405.333,42.667v298.667H106.667V42.667H405.333z M106.667,469.333V384h298.667v85.333H106.667z"/> <path d="M277.333,405.333h-42.667c-11.782,0-21.333,9.551-21.333,21.333S222.885,448,234.667,448h42.667 c11.782,0,21.333-9.551,21.333-21.333S289.115,405.333,277.333,405.333z"/> <path d="M320,320c35.355,0,64-28.645,64-64s-28.645-64-64-64s-64,28.645-64,64S284.645,320,320,320z M320,234.667 c11.791,0,21.333,9.542,21.333,21.333s-9.542,21.333-21.333,21.333s-21.333-9.542-21.333-21.333S308.209,234.667,320,234.667z"/> <path d="M170.667,277.333H192c11.782,0,21.333-9.551,21.333-21.333s-9.551-21.333-21.333-21.333h-21.333 c-11.782,0-21.333,9.551-21.333,21.333S158.885,277.333,170.667,277.333z"/> </g> </g> </g> </g>

</svg>
