<?xml version="1.0" encoding="UTF-8" standalone="no"?>
<!-- Generator: Adobe Illustrator 24.2.0, SVG Export Plug-In . SVG Version: 6.00 Build 0)  -->

<svg
   version="1.1"
   id="layer"
   x="0px"
   y="0px"
   viewBox="0 0 450 112.8"
   xml:space="preserve"
   sodipodi:docname="373366ss.svg"
   width="450"
   height="112.8"
   inkscape:version="1.2.1 (9c6d41e, 2022-07-14)"
   xmlns:inkscape="http://www.inkscape.org/namespaces/inkscape"
   xmlns:sodipodi="http://sodipodi.sourceforge.net/DTD/sodipodi-0.dtd"
   xmlns:xlink="http://www.w3.org/1999/xlink"
   xmlns="http://www.w3.org/2000/svg"
   xmlns:svg="http://www.w3.org/2000/svg"><defs
   id="defs353" /><sodipodi:namedview
   id="namedview351"
   pagecolor="#ffffff"
   bordercolor="#666666"
   borderopacity="1.0"
   inkscape:showpageshadow="2"
   inkscape:pageopacity="0.0"
   inkscape:pagecheckerboard="0"
   inkscape:deskcolor="#d1d1d1"
   showgrid="false"
   inkscape:zoom="0.99305056"
   inkscape:cx="247.72153"
   inkscape:cy="34.237934"
   inkscape:window-width="1309"
   inkscape:window-height="682"
   inkscape:window-x="0"
   inkscape:window-y="25"
   inkscape:window-maximized="0"
   inkscape:current-layer="g348" />
<style
   type="text/css"
   id="style280">
	.st0{fill:#231815;}
	.st1{fill:none;stroke:#231815;stroke-width:0.8687;stroke-miterlimit:3.864;}
	.st2{fill:#0070BD;}
	.st3{clip-path:url(#SVGID_2_);fill:url(#SVGID_3_);}
	.st4{clip-path:url(#SVGID_5_);fill:url(#SVGID_6_);}
	.st5{fill:#595757;}
</style>
<g
   id="g348"
   transform="translate(-31,-199.7)">
	<path
   class="st0"
   d="m 250,273.2 2.5,-9.5 h 21.8 l 2.6,9.5 h 21.8 l -23.9,-71.3 h -23.3 l -22.4,71.3 z m 20.4,-24.3 h -13.8 l 6.8,-25.6 z m 135.7,-28 v 0.5 1.4 c 0,13.9 9.8,18.9 19.4,21.8 l 3.5,1.1 3.5,0.9 c 2.3,0.6 4.4,1.1 6.2,1.7 3.6,1.3 5.8,2.8 5.8,5.2 0,3 -3.3,5 -8.8,5 -2.1,0 -4.3,-0.6 -6,-1.7 -1.8,-1.1 -3,-2.9 -3.5,-5.4 l -0.1,-0.3 h -21.5 v 0.3 c 0.5,13.1 12.1,24.2 29.8,24.2 18.4,0 31.5,-8.1 31.5,-24.9 0,-13.2 -9.8,-18.2 -19.4,-21.1 l -3.6,-1.1 -3.5,-0.9 c -2.3,-0.6 -4.4,-1.1 -6.1,-1.8 -3.6,-1.3 -5.8,-2.9 -5.8,-5.3 0,-2.3 1.8,-3.8 6.6,-3.8 2.1,0 4,0.4 5.5,1.3 1.5,0.8 2.6,2.3 3,4.7 l 0.1,0.3 H 464 l -0.1,-0.4 c -1.6,-12.7 -10.1,-22.9 -28.8,-22.9 -14.6,0 -26,5.9 -28.6,17.7 l -0.4,2.1 v -18 h -61.7 v 0 h -61.1 v 19.4 H 303 v 52.6 h 22.4 V 220.9 H 345 v 0 h 19.1 v 52.7 h 22.5 v -52.7 z m -226.8,23.6 -7.3,-43 h -21.8 l 16.7,72 h 22 l 7.4,-40.4 7.5,40.4 h 20.5 l 21,-71.9 h -24.6 l -7.3,43 -6.9,-43 h -20.2 z"
   id="path282" />
	<polygon
   class="st1"
   points="298.5,273.2 274.6,201.8 251.3,201.8 229,273.2 250,273.2 252.5,263.8 274.2,263.8 276.8,273.2 "
   id="polygon284" />
	<polygon
   class="st1"
   points="256.6,248.9 263.4,223.4 270.4,248.9 "
   id="polygon286" />
	<path
   class="st2"
   d="m 74.4,202.2 c 0,0 0,0.2 0.2,0.7 l 34.4,70.6 h 33.2 c 0.3,0 0.5,-0.1 0.8,-0.3 l 0.2,-0.3 0.1,-0.4 0.1,-0.4 -28.1,-56.3 -6.9,-14.1 -0.5,-0.5 C 107.7,201 107.4,201 107.2,201 H 76.3 c 0,0 -1.1,0.2 -1.5,0.5 z m -9.8,-0.5 H 31 l 34.3,71 c 0.2,0.3 0.4,0.5 0.8,0.7 0.2,0.2 0.5,0.2 0.7,0.2 h 32 c 0,0 0.6,0 0.8,-0.2 l 0.5,-0.4 z m 79.7,56.6 3.5,6.9 v -63.5 l -0.2,-0.4 -0.4,-0.2 h -0.2 -29.2 -0.4 l -0.3,0.2 c -0.2,0.2 -0.2,0.2 -0.2,0.5 0,0 -0.2,0.4 0,0.6 z"
   id="path288" />
	<g
   id="g305">
		<g
   id="g303">
			<defs
   id="defs291">
				<path
   id="SVGID_1_"
   d="m 74,203.6 c -0.5,4.6 -1.1,9.3 -1.7,13.6 L 100,273 101.9,258.4 75,203 74.6,201.9 c -0.3,0.5 -0.5,1.1 -0.6,1.7 z" />
			</defs>
			<clipPath
   id="SVGID_2_">
				<use
   xlink:href="#SVGID_1_"
   style="overflow:visible"
   id="use293" />
			</clipPath>
			
				<linearGradient
   id="SVGID_3_"
   gradientUnits="userSpaceOnUse"
   x1="-227.78059"
   y1="-148.27209"
   x2="-224.76379"
   y2="-148.27209"
   gradientTransform="matrix(2.596,-1.2661,1.2661,2.596,862.2168,335.8958)">
				<stop
   offset="0"
   style="stop-color:#DBDCDC"
   id="stop296" />
				<stop
   offset="1"
   style="stop-color:#3E3A39"
   id="stop298" />
			</linearGradient>
			<polygon
   class="st3"
   points="44.4,215.6 96.2,190.4 129.8,259.3 78,284.6 "
   clip-path="url(#SVGID_2_)"
   id="polygon301"
   style="fill:url(#SVGID_3_)" />
		</g>
	</g>
	<g
   id="g322">
		<g
   id="g320">
			<defs
   id="defs308">
				<polygon
   id="SVGID_4_"
   points="116.7,202.3 115.3,216.2 143.2,272.2 144.3,258.3 117.2,203.3 " />
			</defs>
			<clipPath
   id="SVGID_5_">
				<use
   xlink:href="#SVGID_4_"
   style="overflow:visible"
   id="use310" />
			</clipPath>
			
				<linearGradient
   id="SVGID_6_"
   gradientUnits="userSpaceOnUse"
   x1="-244.12309"
   y1="-155.8331"
   x2="-241.1062"
   y2="-155.8331"
   gradientTransform="matrix(2.2714,-1.1079,1.1079,2.2714,853.5056,322.4237)">
				<stop
   offset="0"
   style="stop-color:#DBDCDC"
   id="stop313" />
				<stop
   offset="1"
   style="stop-color:#3E3A39"
   id="stop315" />
			</linearGradient>
			<polygon
   class="st4"
   points="87.8,215.7 138.8,190.8 171.9,258.8 120.9,283.6 "
   clip-path="url(#SVGID_5_)"
   id="polygon318"
   style="fill:url(#SVGID_6_)" />
		</g>
	</g>
	<path
   class="st0"
   d="m 463.4,208.4 c 0,5.3 4.1,8.6 8.8,8.6 4.7,0 8.8,-3.4 8.8,-8.6 0,-5.2 -4.1,-8.6 -8.8,-8.6 -4.6,0 -8.8,3.3 -8.8,8.6 z m 2.4,0 c 0,-3.9 2.9,-6.7 6.5,-6.7 3.5,0 6.5,2.9 6.5,6.7 0,3.9 -2.9,6.8 -6.5,6.8 -3.6,0 -6.5,-2.9 -6.5,-6.8 z m 3,4.7 h 1.9 V 209 h 1.2 l 2.3,4.1 h 2 l -2.6,-4.2 c 1.4,-0.1 2.6,-0.8 2.6,-2.6 0,-2.1 -1.4,-2.9 -3.8,-2.9 h -3.6 z m 1.9,-8.1 h 1.6 c 0.9,0 2,0.2 2,1.2 0,1.1 -0.8,1.4 -1.9,1.4 h -1.7 z"
   id="path324" />
	<path
   class="st5"
   d="m 281.8,303.2 h -2.1 c -0.1,0.9 -1.2,2.4 -3.2,2.4 -2.4,0 -3.6,-1.5 -3.6,-4.1 h 9 c 0,-4.4 -1.7,-7.2 -5.3,-7.2 -4.1,0 -5.9,3.1 -5.9,6.9 0,3.6 2,6.2 5.6,6.2 2,0 2.8,-0.5 3.4,-0.8 1.5,-1.1 2,-2.8 2.1,-3.4 z m -2,-3.3 h -6.9 c 0,-2 1.5,-3.7 3.5,-3.7 2.4,0 3.3,1.8 3.4,3.7 z M 268,296.4 h 2 v -1.7 h -2 v -3.5 h -2.1 v 3.5 h -1.7 v 1.7 h 1.7 v 8.2 c 0,1.5 0.5,2.6 2.5,2.6 L 270,307 v -1.7 h -0.8 -0.4 l -0.4,-0.1 c -0.2,-0.2 -0.5,-0.4 -0.5,-0.8 v -8 z m -15.6,2.1 h 2 c 0.2,-1 0.5,-2.4 2.9,-2.4 2,0 2.9,0.7 2.9,2 0,1.2 -0.6,1.4 -1.1,1.5 l -3.5,0.5 c -3.5,0.5 -3.8,2.9 -3.8,3.9 0,2.1 1.7,3.6 3.9,3.6 2.4,0 3.7,-1.1 4.5,-2 0.1,1 0.4,1.9 2.2,1.9 l 0.6,-0.1 0.5,-0.2 v -1.5 l -0.7,0.1 c -0.5,0 -0.7,-0.2 -0.7,-0.8 v -7.1 c 0,-3.2 -3.6,-3.5 -4.6,-3.5 -3,-0.1 -5,1.1 -5.1,4.1 z m 7.6,2.3 v 2 c 0,1.7 -1.9,2.9 -3.8,2.9 -1.6,0 -2.3,-0.8 -2.3,-2.2 0,-1.6 1.7,-1.9 2.6,-2 2.7,-0.3 3.1,-0.5 3.5,-0.7 z m -23,6.3 3.9,-14.1 h 0.1 l 3.9,14.1 h 2.4 l 4.5,-17 h -2.6 l -3.2,13.8 v 0 l -3.8,-13.8 h -2.5 l -3.8,13.8 h -0.1 l -3.2,-13.8 h -2.5 l 4.4,17 z m -15.7,-8.9 h 2 c 0,-0.6 -0.3,-3.9 -4.7,-3.9 -2.4,0 -4.7,1.2 -4.7,4 0,1.7 1.1,2.6 2.9,3 l 2.4,0.6 c 1.8,0.5 2.5,0.8 2.5,1.8 0,1.4 -1.4,2 -2.9,2 -2.9,0 -3.2,-1.6 -3.3,-2.6 h -2 c 0.1,1.5 0.5,4.4 5.3,4.4 2.8,0 4.9,-1.6 4.9,-4.1 0,-1.7 -0.9,-2.6 -3.5,-3.3 l -2.1,-0.5 c -1.6,-0.4 -2.3,-0.6 -2.3,-1.7 0,-1.6 1.8,-1.7 2.5,-1.7 2.7,-0.1 3,1.2 3,2 z m -31.8,0.3 h 2 c 0.2,-1 0.5,-2.4 2.9,-2.4 2,0 2.9,0.7 2.9,2 0,1.2 -0.6,1.4 -1.1,1.5 l -3.5,0.5 c -3.5,0.5 -3.8,2.9 -3.8,3.9 0,2.1 1.6,3.6 3.9,3.6 2.4,0 3.7,-1.1 4.5,-2 0.1,1 0.4,1.9 2.2,1.9 l 0.6,-0.1 0.5,-0.2 v -1.5 l -0.7,0.1 c -0.5,0 -0.7,-0.2 -0.7,-0.8 v -7.1 c 0,-3.2 -3.6,-3.5 -4.6,-3.5 -3.1,-0.1 -5,1.1 -5.1,4.1 z m 7.7,2.3 v 2 c 0,1.7 -1.9,2.9 -3.8,2.9 -1.6,0 -2.3,-0.8 -2.3,-2.2 0,-1.6 1.7,-1.9 2.6,-2 2.6,-0.3 3.1,-0.5 3.5,-0.7 z m -23.2,6.3 3.9,-14.1 h 0.1 l 3.9,14.1 h 2.4 l 4.5,-17 h -2.6 l -3.2,13.8 h -0.1 l -3.8,-13.8 h -2.5 l -3.8,13.8 h -0.1 l -3.2,-13.8 H 167 l 4.4,17 z m 33.1,-10.7 h 1.3 v 8.2 c 0,1.5 0.5,2.6 2.6,2.6 l 1.6,-0.2 v -1.7 h -0.8 -0.4 l -0.5,-0.1 c -0.2,-0.2 -0.5,-0.4 -0.5,-0.8 v -8.1 h 2 v -1.7 h -2 v -3.5 h -2.1 v 3.5 h -1.7 v 0 H 205 v -3.5 h -2 v 3.5 h -1.7 v 1.7 h 1.7 v 8.2 c 0,1.5 0.5,2.6 2.5,2.6 l 1.6,-0.2 v -1.7 h -0.8 -0.4 l -0.4,-0.1 c -0.2,-0.2 -0.5,-0.4 -0.5,-0.8 v -8 z"
   id="path326" />
	<path
   class="st5"
   d="m 286.6,307.1 h -2.1 v -12.4 h 2 v 2 h 0.1 c 0.8,-1.4 2,-2.4 3.5,-2.4 l 0.5,0.1 v 2.2 h -0.8 c -2,0 -3.2,1.5 -3.2,3.3 z"
   id="path328" />
	<path
   class="st5"
   d="m 363.8,294.3 c -4,0 -5.8,3.3 -5.8,6.5 0,3.2 1.8,6.5 5.8,6.5 4,0 5.8,-3.3 5.8,-6.5 -0.1,-3.2 -1.9,-6.5 -5.8,-6.5 z m 0,11.3 c -3,0 -3.6,-3.1 -3.6,-4.7 0,-1.6 0.6,-4.7 3.6,-4.7 3,0 3.6,3.1 3.6,4.7 0,1.6 -0.6,4.7 -3.6,4.7 z m -7.9,1.5 v -8.4 c 0,-3.5 -2.4,-4.3 -4.4,-4.3 -2.1,0 -3.3,1.4 -3.8,2.1 v 0 -1.7 h -2 v 12.4 h 2.1 v -6.8 c 0,-3.4 2.1,-4.1 3.3,-4.1 2,0 2.6,1.1 2.6,3.2 v 7.7 z m -12.9,0 v -8.4 c 0,-3.5 -2.4,-4.3 -4.4,-4.3 -2,0 -3,1.2 -3.6,2 v 0 -6.3 h -2.1 v 17 h 2.1 v -6.8 c 0,-3.2 1.7,-4.1 3.5,-4.1 2,0 2.5,1.1 2.5,2.8 v 8.1 z m -14,-8.3 h 2 c -0.2,-2.2 -1.4,-4.5 -4.7,-4.5 -4.1,0 -5.9,3.1 -5.9,6.9 0,3.6 2,6.2 5.6,6.2 3.6,0 4.8,-2.8 5,-4.7 h -2 c -0.4,1.9 -1.6,2.9 -2.9,2.9 -2.9,0 -3.4,-2.6 -3.4,-4.7 0,-2.2 0.8,-4.7 3.4,-4.7 1.8,0 2.7,1 2.9,2.6 z m -12.1,1.1 H 310 c 0,-2 1.5,-3.7 3.5,-3.7 2.5,0 3.3,1.8 3.4,3.7 z m 2,3.3 h -2.1 c -0.1,0.9 -1.2,2.4 -3.2,2.4 -2.4,0 -3.6,-1.5 -3.6,-4.1 h 9.1 c 0,-4.4 -1.7,-7.2 -5.3,-7.2 -4.1,0 -5.9,3.1 -5.9,6.9 0,3.6 2,6.2 5.6,6.2 2,0 2.8,-0.5 3.4,-0.8 1.3,-1.1 1.9,-2.8 2,-3.4 z m -23.1,-13.1 v 2 h 5.8 V 307 h 2.3 v -14.9 h 5.8 v -2 z"
   id="path330" />
	<rect
   x="371.70001"
   y="290.10001"
   class="st5"
   width="2.0999999"
   height="17"
   id="rect332" />
	<path
   class="st5"
   d="m 397.7,305.8 v 0.4 l 0.1,0.1 -0.1,1.3 c -0.1,0.5 -0.2,1 -0.4,1.4 -0.5,0.9 -1.3,1.7 -3.1,1.7 h -0.6 l -0.8,-0.2 c -0.6,-0.2 -1.1,-0.8 -1.4,-1.7 h -2.1 c 0.4,3.3 3.3,3.7 4.7,3.7 5.7,0 5.8,-4.4 5.8,-6.2 V 295 h -2 v 1.7 h -0.1 l -0.5,-0.6 -0.8,-0.7 c -0.6,-0.5 -1.4,-0.8 -2.5,-0.8 -3.3,0 -5.2,2.7 -5.2,6.2 0,2.9 1.2,6.9 5.4,6.9 2.1,-0.3 3.1,-1.1 3.6,-1.9 z m -3.2,-0.2 c -2.3,0 -3.3,-2 -3.3,-4.8 0,-1.6 0.2,-4.7 3.4,-4.7 3,0 3.3,3.2 3.3,5.3 0,3.4 -2,4.2 -3.4,4.2 z m -12.7,-11.3 c -4,0 -5.8,3.3 -5.8,6.5 0,3.2 1.8,6.5 5.8,6.5 4,0 5.8,-3.3 5.8,-6.5 -0.1,-3.2 -1.9,-6.5 -5.8,-6.5 z m 0,11.3 c -3,0 -3.6,-3.1 -3.6,-4.7 0,-1.6 0.6,-4.7 3.6,-4.7 3,0 3.6,3.1 3.6,4.7 0,1.6 -0.6,4.7 -3.6,4.7 z"
   id="path334" />
	<path
   class="st5"
   d="m 404.7,290.1 h -2.1 v 2.4 h 2.1 z m -2.1,17 h 2.1 v -12.4 h -2.1 z"
   id="path336" />
	<path
   class="st5"
   d="m 427.5,298.2 h 2 c 0,-0.6 -0.3,-3.9 -4.7,-3.9 -2.4,0 -4.7,1.2 -4.7,4 0,1.7 1.1,2.6 2.9,3 l 2.4,0.6 c 1.8,0.5 2.5,0.8 2.5,1.8 0,1.4 -1.4,2 -2.9,2 -2.9,0 -3.2,-1.6 -3.3,-2.6 h -2 c 0.1,1.5 0.5,4.4 5.3,4.4 2.8,0 4.9,-1.6 4.9,-4.1 0,-1.7 -0.9,-2.6 -3.5,-3.3 l -2.1,-0.5 c -1.6,-0.4 -2.3,-0.6 -2.3,-1.7 0,-1.6 1.8,-1.7 2.5,-1.7 2.7,-0.1 3,1.2 3,2 z m -9.4,5 h -2 c -0.1,0.9 -1.2,2.4 -3.2,2.4 -2.4,0 -3.6,-1.5 -3.6,-4.1 h 9.1 c 0,-4.4 -1.7,-7.2 -5.3,-7.2 -4.1,0 -5.9,3.1 -5.9,6.9 0,3.6 2.1,6.2 5.6,6.2 2,0 2.8,-0.5 3.4,-0.8 1.3,-1.1 1.8,-2.8 1.9,-3.4 z m -2,-3.3 h -6.9 c 0,-2 1.5,-3.7 3.5,-3.7 2.5,0 3.3,1.8 3.4,3.7 z"
   id="path338" />
	<path
   class="st5"
   d="m 432.2,304.5 h 2.5 v 2.3 c 0,3.2 -2,3.6 -2.5,3.7 v -1.1 c 1,-0.1 1.3,-1.3 1.3,-2.4 h -1.3 z"
   id="path340" />
	<rect
   x="445.10001"
   y="290.10001"
   class="st5"
   width="2.3"
   height="17"
   id="rect342" />
	<path
   class="st5"
   d="m 471.5,298.8 h 2 c -0.2,-2.2 -1.4,-4.5 -4.7,-4.5 -4.1,0 -5.9,3.1 -5.9,6.9 0,3.6 2,6.2 5.6,6.2 3.6,0 4.8,-2.8 5,-4.7 h -2 c -0.4,1.9 -1.6,2.9 -2.9,2.9 -2.9,0 -3.4,-2.6 -3.4,-4.7 0,-2.2 0.8,-4.7 3.4,-4.7 1.7,0 2.6,1 2.9,2.6 z m -10.6,8.3 v -8.4 c 0,-3.5 -2.4,-4.3 -4.4,-4.3 -2.1,0 -3.3,1.4 -3.8,2.1 h -0.1 v -1.7 h -2 v 12.4 h 2.1 v -6.8 c 0,-3.4 2.1,-4.1 3.3,-4.1 2,0 2.6,1.1 2.6,3.2 v 7.7 z"
   id="path344" />
	<rect
   x="475.79999"
   y="304.5"
   class="st5"
   width="2.5"
   height="2.5999999"
   id="rect346" />
</g>
</svg>
